<svg width="144" height="28" viewBox="0 0 144 28" fill="none" xmlns="http://www.w3.org/2000/svg">
<g clip-path="url(#clip0)">
<path d="M25.0238 27.3092H13.6132C11.8157 27.3244 10.033 26.9887 8.36789 26.3217C6.7028 25.6546 5.18833 24.6694 3.91185 23.4228C2.63537 22.1763 1.62218 20.693 0.93074 19.0587C0.239301 17.4244 -0.116699 15.6714 -0.116699 13.9009C-0.116699 12.1304 0.239301 10.3774 0.93074 8.74316C1.62218 7.10887 2.63537 5.62563 3.91185 4.37906C5.18833 3.13248 6.7028 2.14724 8.36789 1.4802C10.033 0.813159 11.8157 0.477532 13.6132 0.492678H25.0238L21.0207 4.43659H13.6132C11.0646 4.43659 8.6205 5.43377 6.81841 7.20877C5.01632 8.98377 4.00386 11.3912 4.00386 13.9014C4.00386 16.4117 5.01632 18.8191 6.81841 20.5941C8.6205 22.3691 11.0646 23.3663 13.6132 23.3663H21.0207L25.0238 27.3092Z" fill="#23303D"/>
<path d="M54.6519 0.492676H66.0625C69.6527 0.522928 73.0854 1.9489 75.6132 4.46015C78.1411 6.9714 79.5594 10.3646 79.5594 13.9009C79.5594 17.4373 78.1411 20.8305 75.6132 23.3417C73.0854 25.853 69.6527 27.2789 66.0625 27.3092H54.6519L58.656 23.3653H66.0634C68.612 23.3653 71.0562 22.3681 72.8583 20.5931C74.6604 18.8181 75.6728 16.4107 75.6728 13.9004C75.6728 11.3902 74.6604 8.98281 72.8583 7.2078C71.0562 5.43281 68.612 4.43562 66.0634 4.43562H58.651L54.6519 0.492676Z" fill="#23303D"/>
<path d="M39.5369 28C36.7258 28 33.9779 27.179 31.6406 25.6407C29.3033 24.1025 27.4816 21.9161 26.4058 19.3581C25.33 16.8001 25.0484 13.9853 25.5968 11.2697C26.1451 8.55408 27.4986 6.0596 29.4863 4.1017C31.474 2.14379 34.0064 0.810378 36.7635 0.270093C39.5205 -0.270192 42.3782 0.00692828 44.9754 1.06637C47.5725 2.12581 49.7924 3.91999 51.3543 6.22207C52.9162 8.52415 53.7499 11.2307 53.7501 13.9995C53.7461 17.7113 52.2474 21.27 49.5828 23.8947C46.9182 26.5194 43.3054 27.9959 39.5369 28ZM39.5369 3.94393C37.5176 3.94393 35.5435 4.53375 33.8645 5.63878C32.1855 6.74381 30.8768 8.31442 30.1041 10.152C29.3313 11.9896 29.1291 14.0117 29.523 15.9624C29.917 17.9132 30.8894 19.7051 32.3173 21.1115C33.7452 22.518 35.5645 23.4758 37.545 23.8638C39.5256 24.2519 41.5785 24.0527 43.4441 23.2915C45.3098 22.5304 46.9044 21.2414 48.0263 19.5876C49.1482 17.9338 49.747 15.9895 49.747 14.0005C49.7441 11.3342 48.6675 8.77795 46.7533 6.89259C44.8392 5.00724 42.2439 3.94679 39.5369 3.94393Z" fill="#00CDFA"/>
<path d="M90.3312 27.3092H86.3271V3.94396L90.3312 0.493652V27.3092Z" fill="#23303D"/>
<path d="M119.501 0L117.501 3.94295H109.975V27.3092H105.972V3.94295H96.4468L98.566 0H119.501Z" fill="#23303D"/>
<path d="M144 0L141.997 3.94295H134.472V27.3092H130.469V3.94295H120.941L123.063 0H144Z" fill="#23303D"/>
</g>
<defs>
<clipPath id="clip0">
<rect width="144" height="28" fill="white"/>
</clipPath>
</defs>
</svg>
