<svg width="56" height="30" viewBox="0 0 56 30" fill="none" xmlns="http://www.w3.org/2000/svg">
<g clip-path="url(#clip0)">
<path d="M26.1211 29.2599H14.21C12.3337 29.2761 10.4728 28.9165 8.73465 28.2018C6.99653 27.4871 5.41563 26.4315 4.08317 25.0959C2.75071 23.7603 1.69307 22.1711 0.971309 20.4201C0.249544 18.669 -0.12207 16.7908 -0.12207 14.8938C-0.12207 12.9969 0.249544 11.1187 0.971309 9.36767C1.69307 7.61664 2.75071 6.02746 4.08317 4.69185C5.41563 3.35623 6.99653 2.30061 8.73465 1.58593C10.4728 0.871242 12.3337 0.511641 14.21 0.52787H26.1211L21.9424 4.75348H14.21C11.5497 4.75348 8.99834 5.82189 7.11721 7.72368C5.23608 9.62546 4.17921 12.2049 4.17921 14.8944C4.17921 17.5839 5.23608 20.1633 7.11721 22.0651C8.99834 23.9669 11.5497 25.0353 14.21 25.0353H21.9424L26.1211 29.2599Z" fill="#23303D"/>
<path d="M41.2711 30.0001C38.3368 30.0001 35.4683 29.1204 33.0285 27.4723C30.5886 25.8241 28.687 23.4816 27.5641 20.7409C26.4411 18.0001 26.1472 14.9843 26.7196 12.0747C27.292 9.16514 28.7049 6.49248 30.7797 4.39473C32.8545 2.29697 35.4981 0.868315 38.376 0.289438C41.254 -0.289439 44.2371 0.00747547 46.9481 1.14259C49.6592 2.2777 51.9764 4.20004 53.6068 6.66656C55.2372 9.13307 56.1075 12.033 56.1077 14.9995C56.1036 18.9765 54.5391 22.7893 51.7577 25.6015C48.9762 28.4137 45.2049 29.9956 41.2711 30.0001ZM41.2711 4.2257C39.1632 4.2257 37.1026 4.85764 35.3499 6.0416C33.5973 7.22557 32.2312 8.90836 31.4246 10.8772C30.6179 12.8461 30.4068 15.0125 30.818 17.1027C31.2293 19.1928 32.2444 21.1127 33.7349 22.6196C35.2254 24.1265 37.1245 25.1527 39.1919 25.5684C41.2593 25.9842 43.4023 25.7708 45.3497 24.9553C47.2972 24.1398 48.9618 22.7587 50.1329 20.9868C51.304 19.2149 51.929 17.1316 51.929 15.0006C51.926 12.1438 50.8021 9.405 48.8041 7.38498C46.806 5.36495 44.0968 4.22876 41.2711 4.2257Z" fill="#00CDFA"/>
</g>
<defs>
<clipPath id="clip0">
<rect width="56" height="30" fill="white"/>
</clipPath>
</defs>
</svg>
